<svg width="1080" height="1080" viewBox="0 0 1080 1080" fill="none" xmlns="http://www.w3.org/2000/svg">
<path d="M529.353 238.494C530.776 192.093 540.736 184.517 582.471 193.987C736.131 229.024 870.346 375.328 891.688 530.155C917.772 720.966 786.876 910.355 601.916 950.128C504.693 970.96 505.167 970.961 510.858 866.323C512.477 836.309 513.417 806.07 514.177 775.77C486.369 819.57 448.473 856.873 402.046 882.799C325.183 925.65 325.585 925.528 303.243 835.374C290.077 782.349 274.256 729.258 259.763 676.201L197.072 439.961C181.531 386.347 168.137 342.608 155.946 298.502C145.107 258.809 151.569 249.808 189.342 247.018C319.65 237.533 460.857 315.197 526.086 428.353L526.982 404.684C527.931 341.712 527.93 290.102 529.353 238.494Z" fill="#30B0C7"/>
</svg>
